<svg width="192" height="192" viewBox="0 0 192 192" fill="none" xmlns="http://www.w3.org/2000/svg">
  <!-- Speaker Cabinet Shadow -->
  <rect x="4" y="4" width="120" height="180" rx="8" fill="rgba(0,0,0,0.3)"/>
  
  <!-- Speaker Cabinet -->
  <rect x="0" y="0" width="120" height="180" rx="8" fill="#1a1a1a" stroke="#333" stroke-width="2"/>
  
  <!-- Cabinet Wood Grain Effect -->
  <rect x="4" y="4" width="112" height="172" rx="6" fill="url(#woodGrain)"/>
  
  <!-- Tweeter Housing (Top) -->
  <circle cx="60" cy="45" r="18" fill="#2a2a2a" stroke="#444" stroke-width="1"/>
  <circle cx="60" cy="45" r="12" fill="#1a1a1a"/>
  <circle cx="60" cy="45" r="8" fill="#333"/>
  <circle cx="60" cy="45" r="4" fill="currentColor"/>
  
  <!-- Main Woofer Housing -->
  <circle cx="60" cy="120" r="45" fill="#2a2a2a" stroke="#444" stroke-width="2"/>
  
  <!-- Woofer Cone -->
  <circle cx="60" cy="120" r="38" fill="url(#wooferGradient)"/>
  <circle cx="60" cy="120" r="32" fill="url(#coneGradient)"/>
  <circle cx="60" cy="120" r="25" fill="url(#innerCone)"/>
  
  <!-- Woofer Center Cap -->
  <circle cx="60" cy="120" r="12" fill="#1a1a1a" stroke="#333" stroke-width="1"/>
  <circle cx="60" cy="120" r="8" fill="#2a2a2a"/>
  
  <!-- Speaker Grille Holes Pattern -->
  <g opacity="0.3">
    <!-- Top section holes -->
    <circle cx="30" cy="25" r="1.5" fill="#666"/>
    <circle cx="45" cy="25" r="1.5" fill="#666"/>
    <circle cx="75" cy="25" r="1.5" fill="#666"/>
    <circle cx="90" cy="25" r="1.5" fill="#666"/>
    
    <!-- Around tweeter -->
    <circle cx="35" cy="45" r="1" fill="#666"/>
    <circle cx="85" cy="45" r="1" fill="#666"/>
    <circle cx="60" cy="20" r="1" fill="#666"/>
    <circle cx="60" cy="70" r="1" fill="#666"/>
    
    <!-- Around woofer -->
    <circle cx="20" cy="120" r="1.5" fill="#666"/>
    <circle cx="100" cy="120" r="1.5" fill="#666"/>
    <circle cx="60" cy="80" r="1.5" fill="#666"/>
    <circle cx="60" cy="160" r="1.5" fill="#666"/>
    
    <!-- Bottom section -->
    <circle cx="30" cy="155" r="1.5" fill="#666"/>
    <circle cx="45" cy="155" r="1.5" fill="#666"/>
    <circle cx="75" cy="155" r="1.5" fill="#666"/>
    <circle cx="90" cy="155" r="1.5" fill="#666"/>
  </g>
  
  <!-- Brand Logo Area -->
  <rect x="20" y="8" width="80" height="12" rx="2" fill="rgba(255,255,255,0.1)"/>
  <text x="60" y="16" text-anchor="middle" fill="currentColor" font-family="Arial, sans-serif" font-size="8" font-weight="bold">VIRTUAL DRUMS</text>
  
  <!-- Bass Port -->
  <rect x="25" y="165" width="70" height="8" rx="4" fill="#0a0a0a" stroke="#333" stroke-width="1"/>
  
  <!-- Sound Waves (Animated) -->
  <g className="sound-waves">
    <path d="M130 60 Q140 80 140 120 Q140 160 130 180" stroke="currentColor" stroke-width="3" fill="none" stroke-linecap="round" opacity="0.6"/>
    <path d="M140 40 Q155 70 155 120 Q155 170 140 200" stroke="currentColor" stroke-width="3" fill="none" stroke-linecap="round" opacity="0.4"/>
    <path d="M150 20 Q170 60 170 120 Q170 180 150 220" stroke="currentColor" stroke-width="3" fill="none" stroke-linecap="round" opacity="0.3"/>
  </g>
  
  <!-- Gradients and Patterns -->
  <defs>
    <linearGradient id="woodGrain" x1="0%" y1="0%" x2="100%" y2="100%">
      <stop offset="0%" style="stop-color:#2a2a2a;stop-opacity:1" />
      <stop offset="50%" style="stop-color:#1a1a1a;stop-opacity:1" />
      <stop offset="100%" style="stop-color:#0a0a0a;stop-opacity:1" />
    </linearGradient>
    
    <radialGradient id="wooferGradient" cx="50%" cy="50%" r="50%">
      <stop offset="0%" style="stop-color:#4a4a4a;stop-opacity:1" />
      <stop offset="100%" style="stop-color:#1a1a1a;stop-opacity:1" />
    </radialGradient>
    
    <radialGradient id="coneGradient" cx="30%" cy="30%" r="70%">
      <stop offset="0%" style="stop-color:#6a6a6a;stop-opacity:1" />
      <stop offset="50%" style="stop-color:#3a3a3a;stop-opacity:1" />
      <stop offset="100%" style="stop-color:#1a1a1a;stop-opacity:1" />
    </radialGradient>
    
    <radialGradient id="innerCone" cx="50%" cy="50%" r="50%">
      <stop offset="0%" style="stop-color:#5a5a5a;stop-opacity:1" />
      <stop offset="100%" style="stop-color:#2a2a2a;stop-opacity:1" />
    </radialGradient>
  </defs>
</svg> 